<svg xmlns="http://www.w3.org/2000/svg" viewBox="0 0 24 24" width="24" height="24" stroke="currentColor">
  <path
    d="M19,7.6H16.8a.945.945,0,0,1-1-1h0a1.914,1.914,0,0,0-.538-1.325A1.872,1.872,0,0,0,13.9,4.7H10.1a1.914,1.914,0,0,0-1.325.538A1.872,1.872,0,0,0,8.2,6.6h0a.945.945,0,0,1-1,1H5a2.008,2.008,0,0,0-2,2v7.7a2.008,2.008,0,0,0,2,2H19a2.006,2.006,0,0,0,2-2V9.6a2.006,2.006,0,0,0-2-2Zm-7,2.5a2.8,2.8,0,1,1-1.98.82A2.791,2.791,0,0,1,12,10.1Z"
    fill="none" stroke-linecap="round" stroke-linejoin="round" stroke-width="2" />
</svg>