<svg xmlns="http://www.w3.org/2000/svg" viewBox="0 0 24 24" width="24" height="24" stroke="currentColor">
  <path
    d="M15.5,9.5a5.438,5.438,0,0,1,1.8,0,4.276,4.276,0,0,1,2.237,1.175A4.612,4.612,0,0,1,20.8,12.9a3.6,3.6,0,0,1,.1,1.137,5.138,5.138,0,0,1-.2,1.063m-2.7,3a4.1,4.1,0,0,1-.763.225,4.432,4.432,0,0,1-.837.075H8.8a6.049,6.049,0,0,1-2.137-.375A4.941,4.941,0,0,1,4.9,16.9a7.3,7.3,0,0,1-1.4-2.162A6.613,6.613,0,0,1,3,12.2,6.354,6.354,0,0,1,6.3,6.6m5.4-.5A6.293,6.293,0,0,1,15.6,10M3,3l9,9,9,9"
    fill="none" stroke-linecap="round" stroke-linejoin="round" stroke-width="2" />
</svg>