<svg xmlns="http://www.w3.org/2000/svg" viewBox="0 0 24 24" height="24" width="24" stroke="currentColor">
  <path
    d="M11.8,14.4l8.5-5.2v4.3m-5.7,7.1a7.509,7.509,0,0,1-2.4.4c-6.8,0-8.5-5.1-8.5-7.6V7.3A4.04,4.04,0,0,1,7.8,3c3.1,0,4,2.7,4,4.3v10a2.769,2.769,0,0,0,.1.9A2.721,2.721,0,0,0,14.6,20.6Zm0,0a7.635,7.635,0,0,0,5.7-7.2m-8.5-2.8,5.7-3.8L11,4.6m9.3,8.8L12,18.6M7.726,6.739a.25.25,0,1,1-.25.25A.25.25,0,0,1,7.726,6.739Z"
    fill="none" stroke-linecap="round" stroke-linejoin="round" stroke-width="2" />
</svg>