<svg xmlns="http://www.w3.org/2000/svg" viewBox="0 0 24 24" width="24" height="24" stroke="currentColor">
  <path
    d="M14.6,20.6a7.806,7.806,0,0,1-1.275.312A7.207,7.207,0,0,1,12.2,21c-3.4,0-5.525-1.275-6.8-2.863A7.885,7.885,0,0,1,3.7,13.4V7.3a4.89,4.89,0,0,1,.85-2.75A3.765,3.765,0,0,1,7.8,3a3.645,3.645,0,0,1,3.162,1.55A4.966,4.966,0,0,1,11.8,7.3v10c0,.15,0,.3.013.45a1.884,1.884,0,0,0,.087.45,3.2,3.2,0,0,0,.788,1.612A2.532,2.532,0,0,0,14.6,20.6Zm0,0a8.543,8.543,0,0,0,3.75-2.287A7.723,7.723,0,0,0,20.3,13.4m-8.5-2.8,2.85-1.9L17.5,6.8,14.25,5.7,11,4.6m1,9.972,8.3-5.1V13.4L16.15,16,12,18.6M7.747,6.9V6.891"
    fill="none" stroke-linecap="round" stroke-linejoin="round" stroke-width="2" />
</svg>