<svg xmlns="http://www.w3.org/2000/svg" viewBox="0 0 24 24" width="24" height="24" stroke="currentColor">
  <g>
    <path d="M8.653,5.6H21M8.653,12H21M8.653,18.4H21" fill="none" stroke-linecap="round" stroke-linejoin="round"
      stroke-width="1" />
    <path stroke-width="0.5"
      d="M2.676,4.521,2.592,4.28a.347.347,0,0,1,.21-.468l1.115-.479a1.241,1.241,0,0,1,.576-.09.323.323,0,0,1,.36.36V7.081a.323.323,0,0,1-.36.359H3.978a.323.323,0,0,1-.361-.359V4.544l-.485.192A.31.31,0,0,1,2.676,4.521Zm2.537,8.336H4.787c-.024,0-.534.012-.8.042l0-.024.611-.479a1.949,1.949,0,0,0,.8-1.416,1.441,1.441,0,0,0-1.619-1.4,1.471,1.471,0,0,0-1.625,1.085c-.055.234.1.372.335.372h.467c.21,0,.271-.114.391-.3a.447.447,0,0,1,.4-.173c.252,0,.468.137.468.377,0,.312-.216.54-.534.822L2.358,12.936a.484.484,0,0,0-.173.461l.017.114a.35.35,0,0,0,.384.33H5.213a.323.323,0,0,0,.359-.36v-.264A.323.323,0,0,0,5.213,12.857Zm-.724,4.887a1.385,1.385,0,0,0-.227-.017l.924-.739a.475.475,0,0,0,.191-.4v-.114a.3.3,0,0,0-.329-.329H2.606a.3.3,0,0,0-.329.329V16.8a.3.3,0,0,0,.329.33H3.764l-.732.539a.31.31,0,0,0-.09.456l.061.09a.367.367,0,0,0,.432.162A1.319,1.319,0,0,1,3.7,18.35c.348,0,.617.173.617.5s-.258.576-.791.576a1.606,1.606,0,0,1-.7-.174.321.321,0,0,0-.461.1l-.174.239a.3.3,0,0,0,.066.462,2.638,2.638,0,0,0,1.391.354c1.253,0,1.9-.66,1.9-1.506A1.133,1.133,0,0,0,4.489,17.744Z" />
  </g>
</svg>