<svg xmlns="http://www.w3.org/2000/svg" viewBox="0 0 24 24" height="24" width="24" stroke="currentColor">
  <path
    d="M21,11.95h0a1.967,1.967,0,0,0-1.9-1.9h-.6a1.9,1.9,0,0,1-1.7-2.8l.3-.5a1.933,1.933,0,0,0-.7-2.6h0a1.933,1.933,0,0,0-2.6.7l-.3.5a1.883,1.883,0,0,1-3.3,0l-.2-.4a1.816,1.816,0,0,0-2.5-.7h0a1.958,1.958,0,0,0-.7,2.6l.3.5a1.867,1.867,0,0,1-1.6,2.8H4.9A1.967,1.967,0,0,0,3,12.05H3a1.967,1.967,0,0,0,1.9,1.9h.6a1.9,1.9,0,0,1,1.7,2.8l-.3.5a1.933,1.933,0,0,0,.7,2.6h0a1.933,1.933,0,0,0,2.6-.7l.3-.5a1.883,1.883,0,0,1,3.3,0l.3.5a1.933,1.933,0,0,0,2.6.7h0a1.933,1.933,0,0,0,.7-2.6l-.3-.5a1.867,1.867,0,0,1,1.6-2.8h.6A1.969,1.969,0,0,0,21,11.95Zm-9-1.9a2,2,0,1,1-2,2A2,2,0,0,1,12,10.05Z"
    fill="none" stroke-linecap="round" stroke-miterlimit="10" stroke-width="2" />
</svg>