<svg xmlns="http://www.w3.org/2000/svg" viewBox="0 0 24 24" width="24" height="24" stroke="currentColor">
  <path
    d="M12.1,3.8a3.4,3.4,0,0,1,1.037-.588A3.786,3.786,0,0,1,14.4,3a3.5,3.5,0,0,1,0,7,3.761,3.761,0,0,1-1.263-.213A3.378,3.378,0,0,1,12.1,9.2M16.2,21H21a8.881,8.881,0,0,0-1.95-5.65A6.074,6.074,0,0,0,14.4,13a5.683,5.683,0,0,0-1.038.088,3.6,3.6,0,0,0-.962.312M9.6,3A3.5,3.5,0,1,1,7.125,4.025,3.493,3.493,0,0,1,9.6,3Zm6.6,18a8.881,8.881,0,0,0-1.95-5.65A6.074,6.074,0,0,0,9.6,13h0a6.074,6.074,0,0,0-4.65,2.35A8.881,8.881,0,0,0,3,21H16.2Z"
    fill="none" stroke-linecap="round" stroke-linejoin="round" stroke-width="2" />
</svg>