<svg xmlns="http://www.w3.org/2000/svg" viewBox="0 0 24 24" height="24" width="24" stroke="currentColor">
  <path
    d="M7.9,8.6a5.2,5.2,0,0,1,8.2,0m0,6.8A5.046,5.046,0,0,0,17.3,12a5.844,5.844,0,0,0-1.2-3.4m0,6.8a5.2,5.2,0,0,1-8.2,0m0-6.8A5.233,5.233,0,0,0,6.7,12a5.844,5.844,0,0,0,1.2,3.4m0-6.8.5-3.9A1.737,1.737,0,0,1,10,3h4a1.823,1.823,0,0,1,1.7,1.7l.5,3.9m-.1,6.8-.5,3.9A1.75,1.75,0,0,1,13.9,21H10a1.823,1.823,0,0,1-1.7-1.7l-.5-3.9M12,10v2l1.7,1.2"
    fill="none" stroke-linecap="round" stroke-linejoin="round" stroke-width="2" />
</svg>