<svg xmlns="http://www.w3.org/2000/svg" viewBox="0 0 24 24" width="24" height="24" stroke="currentColor">
  <path d="M17.509,16.848a2.991,2.991,0,0,1-2.99-2.991v-2.7H20.5v2.7a2.991,2.991,0,0,1-2.991,2.991m0,4.152H16.075M9.276,6.886V3H5.869V7.8a2.861,2.861,0,0,1-1,2.177A3.889,3.889,0,0,0,3.5,12.931v.716M5.869,6.886m11.64,9.962V21m1.435,0H17.509M5.869,6.886H9.276m2.369,6.761H3.5m0,0V21h8.145V13.647m0,0v-.716A3.889,3.889,0,0,0,10.28,9.973a2.861,2.861,0,0,1-1-2.177v-.91" fill="none" stroke-linecap="round" stroke-linejoin="round" stroke-width="2"/>
</svg>
