<svg xmlns="http://www.w3.org/2000/svg" viewBox="0 0 24 24" width="24" height="24" stroke="currentColor">
  <path d="M11.106,4.125l-4,7.3-4,7.3a.979.979,0,0,0,0,1.012,1.035,1.035,0,0,0,.9.488h16a.959.959,0,0,0,.863-.488,1.146,1.146,0,0,0,.037-1.012l-4-7.3-4-7.3a1.125,1.125,0,0,0-1.8,0Zm-.9.5-3.5,6.4-3.5,6.4a2.039,2.039,0,0,0,.038,1.987,2,2,0,0,0,1.762,1.013h14a2.006,2.006,0,0,0,1.725-.975,2.074,2.074,0,0,0,.075-2.025l-3.5-6.4-3.5-6.4a2.068,2.068,0,0,0-3.6,0Zm1.8,4.2v5.2m0,2.965v-.065h0" fill="none" stroke-linecap="round" stroke-linejoin="round" stroke-width="2"/>
</svg>
