<svg xmlns="http://www.w3.org/2000/svg" viewBox="0 0 24 24" width="24" height="24" stroke="currentColor">
  <path d="M9.354,8.82v3.7m-1.988-1.9,3.976-.048m4.345-3.636a1.584,1.584,0,0,0-1.58-1.581H4.6A1.583,1.583,0,0,0,3.021,6.936v7.473A1.584,1.584,0,0,0,4.6,15.988h9.507a1.585,1.585,0,0,0,1.58-1.579Zm0,2.9h1.35a3.983,3.983,0,0,1,2.816,1.167h0a3.978,3.978,0,0,1,1.166,2.815v2.165H12.213M17.492,16a2.061,2.061,0,1,1-2.064,2.061A2.061,2.061,0,0,1,17.492,16ZM7.258,16h0A2.061,2.061,0,1,1,5.2,18.061,2.061,2.061,0,0,1,7.26,16ZM12,3.947V5.355" fill="none" stroke-linecap="round" stroke-linejoin="round" stroke-width="2"/>
</svg>
