<svg xmlns="http://www.w3.org/2000/svg" viewBox="0 0 24 24" width="24" height="24" stroke="currentColor">
  <path d="M19.237,15.653A6.887,6.887,0,0,1,17.182,19.5a5.331,5.331,0,0,1-3.6,1.5c-.07,0-.139,0-.208,0s-.137-.007-.205-.013c-.389-.035-.78-.053-1.17-.053s-.781.018-1.17.053c-.068.006-.137.01-.205.013s-.138,0-.208,0a5.331,5.331,0,0,1-3.6-1.5A7.033,7.033,0,0,1,5.6,10.9,5.1,5.1,0,0,1,9.274,8.37a4.568,4.568,0,0,1,.925-.033,4.766,4.766,0,0,1,.892.142,3.681,3.681,0,0,0,1.818,0,4.766,4.766,0,0,1,.892-.142,4.568,4.568,0,0,1,.925.033A5.1,5.1,0,0,1,18.4,10.9,6.945,6.945,0,0,1,19.237,15.653ZM12.871,8.21a4.072,4.072,0,0,0,3.854-.966,3.454,3.454,0,0,0,1.074-2.7,3.519,3.519,0,0,0-1.061-.669,3.389,3.389,0,0,0-1.274-.247A3.471,3.471,0,0,0,12,6.983m-.058,1.439A5.911,5.911,0,0,0,9.8,3" fill="none" stroke-linecap="round" stroke-linejoin="round" stroke-width="2"/>
</svg>
