<svg xmlns="http://www.w3.org/2000/svg" viewBox="0 0 24 24" width="24" height="24" stroke="currentColor" fill="none" stroke-linecap="round" stroke-linejoin="round" stroke-width="2">
  <path d="M5.42,17.43l1.46-1.46c.48-.48.75-1.13.75-1.82v-1.65h0c.03-.96.87-1.73,1.91-1.73.15,0,.3.02.45.05,1.02.23,1.89,1.25,2.05,2.22h0c.22-.01.45,0,.68.06,1.36.31,2.21,1.66,1.9,3.01-.21.91-.84,1.8-1.82,1.88-.33.03-1.33,0-1.33,0-.68,0-1.33.27-1.82.75l-.95.95M15.29,4.12l-1.01,1.52c-.38.57-.97.96-1.63,1.09,0,0-.98.16-1.3.26-.94.27-1.39,1.27-1.41,2.2-.04,1.39,1.06,2.55,2.45,2.59.23,0,.46-.02.68-.07h0c.35.92,1.4,1.75,2.45,1.78.15,0,.3-.01.45-.04,1.02-.2,1.69-1.12,1.53-2.07h0s-.32-1.62-.32-1.62c-.13-.67,0-1.36.38-1.93l2.04-3.06M10.15,16.99c.47.5.88.89,1.51,1.01M13.05,11.7c.23-.07.45-.17.66-.33M10.71,3.34c-1.88.62-3.7,1.86-5.15,3.66-1.69,2.1-2.52,4.55-2.51,6.8M15.64,20.66c1.02-.65,1.97-1.51,2.8-2.54,1.81-2.26,2.64-4.91,2.49-7.29"/>
</svg>
