<svg xmlns="http://www.w3.org/2000/svg" viewBox="0 0 24 24" width="24" height="24" stroke="currentColor" fill="none" stroke-linecap="round" stroke-linejoin="round" stroke-width="2">
  <path d="M5.38,17.46l1.47-1.47c.48-.48.76-1.14.76-1.83v-1.66h0c.03-.97.88-1.74,1.92-1.74.15,0,.3.02.45.05,1.03.23,1.9,1.25,2.07,2.23h0c.22-.01.46,0,.69.06,1.36.31,2.22,1.67,1.91,3.03-.21.91-.85,1.81-1.83,1.9-.33.03-1.34,0-1.34,0-.68,0-1.34.27-1.83.76l-.96.96M15.31,4.07l-1.02,1.53c-.38.57-.97.96-1.64,1.1,0,0-.99.16-1.31.26-.95.27-1.4,1.28-1.42,2.22-.04,1.4,1.06,2.56,2.46,2.6.24,0,.47-.02.68-.07h0c.36.93,1.41,1.76,2.46,1.79.15,0,.3-.01.45-.04,1.02-.2,1.7-1.13,1.54-2.08h0s-.32-1.63-.32-1.63c-.13-.67,0-1.37.39-1.94l2.06-3.08M10.13,17.02c.47.5.89.9,1.52,1.02M13.05,11.7c.24-.07.46-.17.67-.33M10.7,3.29c-1.89.62-3.73,1.88-5.18,3.69-1.7,2.11-2.54,4.58-2.52,6.84M15.66,20.71c1.02-.66,1.99-1.51,2.82-2.55,1.82-2.27,2.66-4.94,2.5-7.34"/>
</svg>
