<svg xmlns="http://www.w3.org/2000/svg" viewBox="0 0 24 24" width="24" height="24" stroke="currentColor">
  <path d="M12,17.95V7.65m0,0A6.307,6.307,0,0,0,9.925,6.387,7.251,7.251,0,0,0,7.4,5.95a7.064,7.064,0,0,0-2.425.425A6.008,6.008,0,0,0,3,7.55v10.4a6.008,6.008,0,0,1,1.975-1.175A7.064,7.064,0,0,1,7.4,16.35a6.978,6.978,0,0,1,2.525.475A7.457,7.457,0,0,1,12,18.05m0-10.4a6.307,6.307,0,0,1,2.075-1.263A7.251,7.251,0,0,1,16.6,5.95a7.064,7.064,0,0,1,2.425.425A6.008,6.008,0,0,1,21,7.55v10.4a6.008,6.008,0,0,0-1.975-1.175A7.064,7.064,0,0,0,16.6,16.35a6.978,6.978,0,0,0-2.525.475A7.457,7.457,0,0,0,12,18.05" fill="none" stroke-linecap="round" stroke-linejoin="round" stroke-width="2"/>
</svg>
