<svg xmlns="http://www.w3.org/2000/svg" viewBox="0 0 24 24" width="24" height="24" stroke="currentColor" fill="none" stroke-linecap="round" stroke-linejoin="round" stroke-width="2">
  <path d="M7.5,13.8c-1.49,0-2.7,1.21-2.7,2.7s1.21,2.7,2.7,2.7c.32,0,.62-.05.9-.15M5.04,15.24c-1.21-.58-2.04-1.82-2.04-3.24,0-1.09.48-2.07,1.25-2.73M4.28,9.2c-.24-.36-.38-.79-.38-1.25,0-1.24,1.01-2.25,2.25-2.25.51,0,.97.17,1.35.45M7.71,6.21c-.14-.29-.21-.62-.21-.96,0-1.24,1.01-2.25,2.25-2.25s2.25,1.01,2.25,2.25v13.95M8.4,19.2c0,.99.81,1.8,1.8,1.8s1.8-.81,1.8-1.8M12,7.5c0,1.49,1.21,2.7,2.7,2.7M16.5,13.8c1.49,0,2.7,1.21,2.7,2.7s-1.21,2.7-2.7,2.7c-.32,0-.62-.05-.9-.15M18.96,15.24c1.21-.58,2.04-1.82,2.04-3.24,0-1.09-.48-2.07-1.25-2.73M19.72,9.2c.24-.36.38-.79.38-1.25,0-1.24-1.01-2.25-2.25-2.25-.51,0-.97.17-1.35.45M12,5.25c0-1.24,1.01-2.25,2.25-2.25s2.25,1.01,2.25,2.25c0,.34-.08.67-.21.96M15.6,19.2c0,.99-.81,1.8-1.8,1.8s-1.8-.81-1.8-1.8"/>
</svg>
