<svg xmlns="http://www.w3.org/2000/svg" viewBox="0 0 24 24" fill="none" stroke="currentColor" stroke-width="2" width="24" stroke-linecap="round"
  stroke-linejoin="round" stroke-miterlimit="10" height="24">
  <path id="d" data-name="broccoli" d="m13.837,17.055h-2.374c-.801,0-1.57.318-2.137.885l-3.06,3.06-3.265-3.265,3.06-3.06c.567-.567.885-1.335.885-2.137v-2.325m3.882.87v2.232h2.301m-2.628-8.723c-.512-.886-1.539-1.593-2.636-1.593-1.636,0-2.963,1.327-2.963,2.963,0,.276.038.544.109.797h0c-1.072.446-2.01,1.701-2.01,2.935,0,.77.294,1.472.776,1.999m10.185,8.403c.539.557,1.294.903,2.13.903,1.636,0,2.963-1.327,2.963-2.963l-.019-.679c1.146-.409,1.966-1.504,1.966-2.791,0-.734-.364-1.605-.807-2.122h0c.506-.796.807-1.791.807-2.871,0-2.614-1.762-4.732-3.936-4.732-.192,0-.991.012-1.175.044h0c-.431-1.104-1.505-1.886-2.761-1.886-1.16,0-2.165.667-2.651,1.638-.2.399-.312.849-.312,1.325m6.757,9.103h0v.127m.559-3.057h0v.127"/>
</svg>