<svg xmlns="http://www.w3.org/2000/svg" viewBox="0 0 24 24" width="24" height="24" stroke="currentColor" fill="none" stroke-linecap="round" stroke-linejoin="round" stroke-width="2">
  <path d="M4.1,12.95c-.61,0-1.1-.49-1.1-1.1v-2.87c0-.61.49-1.1,1.1-1.1h4.13c1.65-.09,3.3-.58,4.87-1.33,1.14-.55,2.25-1.24,3.28-2.01.68-.51,1.65-.05,1.74.8.18,1.69.26,3.38.26,5.08s-.09,3.39-.26,5.08c-.09.85-1.06,1.31-1.74.8-1.03-.77-2.14-1.46-3.28-2.01-1.57-.75-3.22-1.24-4.87-1.32h-.88s-3.25-.01-3.25-.01ZM21,11.9v-2.97M9.68,7.7v5.44M3.56,12.81l1.72,6.13c.07.26.25.47.47.59.22.12.49.16.75.09l3.15-.88-.69-2.45-.73-.09c-.18-.01-.34-.14-.39-.32l-.83-2.94"/>
</svg>