<svg xmlns="http://www.w3.org/2000/svg" viewBox="0 0 24 24" width="24" height="24" stroke="currentColor">
  <path d="M7.5,7.6H5a2.008,2.008,0,0,0-2,2v7.7a2.008,2.008,0,0,0,2,2H19.031M21,15.4V9.6a2,2,0,0,0-2-2H16.8a.945.945,0,0,1-1-1,1.914,1.914,0,0,0-.538-1.325A1.872,1.872,0,0,0,13.9,4.7H10.3m4,9.9a2.532,2.532,0,0,1-.962.813A3.06,3.06,0,0,1,12,15.7a2.86,2.86,0,0,1-2.8-2.8,2.759,2.759,0,0,1,.337-1.337A2.908,2.908,0,0,1,10.4,10.6M3,3l8.875,8.875.981.981L21,21" fill="none" stroke-linecap="round" stroke-linejoin="round" stroke-width="2"/>
</svg>
