<svg xmlns="http://www.w3.org/2000/svg" viewBox="0 0 24 24" width="24" height="24" stroke="currentColor" fill="none" stroke-linecap="round" stroke-linejoin="round" stroke-width="2">
  <path d="M14.58,19.3c.49.51,1.18.82,1.94.82,1.49,0,2.7-1.21,2.7-2.7l-.02-.62c1.04-.37,1.79-1.37,1.79-2.54,0-.67-.33-1.46-.74-1.93h0c.46-.73.74-1.63.74-2.62,0-2.38-1.61-4.31-3.59-4.31-.18,0-.9.01-1.07.04h0c-.39-1.01-1.37-1.72-2.52-1.72-1.06,0-1.97.61-2.42,1.49-.18.36-.28.77-.28,1.21M11.68,16.47h0v.12M8.88,8.65h0v.12M6.08,16.97c0,.14.03.28.06.41.36,1.45,1.82,2.33,3.27,1.97.24-.06.47-.15.68-.27h0c.63.85,1.95,1.41,3.04,1.14.68-.17,1.24-.58,1.6-1.13M6.08,16.97c-1.1-.2-2.12-.92-2.67-2.03-.86-1.72-.31-3.75,1.21-4.7M11.43,5.17c-.47-.81-1.4-1.45-2.4-1.45-1.49,0-2.7,1.21-2.7,2.7,0,.25.03.5.1.73h0c-.98.41-1.83,1.55-1.83,2.68,0,.14.01.28.03.41M16.31,10.08c0,1.13-.92,2.04-2.04,2.04s-2.04-.92-2.04-2.04.92-2.04,2.04-2.04,2.04.92,2.04,2.04ZM9.96,13.23c0,.9-.73,1.62-1.62,1.62s-1.62-.73-1.62-1.62.73-1.62,1.62-1.62,1.62.73,1.62,1.62ZM14.42,15.17c.23.4.7.73,1.2.73.75,0,1.35-.6,1.35-1.35,0-.13-.02-.25-.05-.36"/>
</svg>
