<svg xmlns="http://www.w3.org/2000/svg" viewBox="0 0 24 24" width="24" height="24" stroke="currentColor" fill="none" stroke-linecap="round" stroke-linejoin="round" stroke-width="2">
  <path d="M14.83,20.01c.54.56,1.29.9,2.13.9,1.64,0,2.96-1.33,2.96-2.96l-.02-.68c1.15-.41,1.97-1.5,1.97-2.79,0-.73-.36-1.6-.81-2.12h0c.51-.8.81-1.79.81-2.87,0-2.61-1.76-4.73-3.94-4.73-.19,0-.99.01-1.18.04h0c-.43-1.1-1.51-1.89-2.76-1.89-1.16,0-2.16.67-2.65,1.64-.2.4-.31.85-.31,1.32M11.65,16.9h0v.13M8.58,8.32h0v.13M5.51,17.45c.01.15.03.3.07.45.39,1.59,2,2.56,3.59,2.16.27-.07.52-.17.75-.3h0c.69.93,2.13,1.54,3.33,1.24.75-.19,1.36-.64,1.75-1.23M5.5,17.45c-1.21-.21-2.32-1.01-2.93-2.22-.94-1.88-.34-4.12,1.33-5.16M11.37,4.51c-.51-.89-1.54-1.59-2.64-1.59-1.64,0-2.96,1.33-2.96,2.96,0,.28.04.54.11.8h0c-1.07.45-2.01,1.7-2.01,2.94,0,.15.01.31.03.45M16.73,9.9c0,1.24-1,2.24-2.24,2.24s-2.24-1-2.24-2.24,1-2.24,2.24-2.24,2.24,1,2.24,2.24ZM9.76,13.35c0,.98-.8,1.78-1.78,1.78s-1.78-.8-1.78-1.78.8-1.78,1.78-1.78,1.78.8,1.78,1.78ZM14.65,15.47c.26.44.77.8,1.32.8.82,0,1.48-.66,1.48-1.48,0-.14-.02-.27-.05-.4"/>
</svg>
