<svg xmlns="http://www.w3.org/2000/svg" viewBox="0 0 24 24" width="24" height="24" stroke="currentColor">
  <path d="M15.9,6.1a1.038,1.038,0,0,1-.65-.213A.972.972,0,0,1,14.9,5.3,3,3,0,0,0,12,3a3.031,3.031,0,0,0-1.862.65A2.886,2.886,0,0,0,9.1,5.2a.972.972,0,0,1-.35.587A1.038,1.038,0,0,1,8.1,6H6.7a.976.976,0,0,0-.725.313A1.017,1.017,0,0,0,5.7,7V20a.976.976,0,0,0,.313.725A1.017,1.017,0,0,0,6.7,21H17.3a.979.979,0,0,0,.725-.312A1.021,1.021,0,0,0,18.3,20V7.1a.976.976,0,0,0-.313-.725A1.017,1.017,0,0,0,17.3,6.1H15.9ZM12,6.05V6h0M9.4,11.8V17h5.2" fill="none" stroke-linecap="round" stroke-linejoin="round" stroke-width="2"/>
</svg>
