<svg xmlns="http://www.w3.org/2000/svg" viewBox="0 0 24 24" width="24" height="24" stroke="currentColor" fill="none" stroke-linecap="round" stroke-linejoin="round" stroke-width="2">
  <path d="M15.55,9.451a5.437,5.437,0,0,1,1.8,0,4.283,4.283,0,0,1,2.238,1.175,4.618,4.618,0,0,1,1.262,2.225,4.564,4.564,0,0,1-.925,3.838,4.477,4.477,0,0,1-3.475,1.662H8.85a6.049,6.049,0,0,1-2.137-.375A4.941,4.941,0,0,1,4.95,16.851a7.3,7.3,0,0,1-1.4-2.162,6.613,6.613,0,0,1-.5-2.538A6.54,6.54,0,0,1,4.938,7.589,6.32,6.32,0,0,1,9.45,5.651,6.351,6.351,0,0,1,14.1,7.514a6.527,6.527,0,0,1,1.95,4.637"/>
</svg>
