<svg xmlns="http://www.w3.org/2000/svg" viewBox="0 0 24 24" width="24" height="24" stroke="currentColor">
  <path d="M15.543,6.8a5.438,5.438,0,0,1,1.8,0,4.283,4.283,0,0,1,2.238,1.175A4.618,4.618,0,0,1,20.843,10.2a4.457,4.457,0,0,1-2.6,5.1M6.043,15a4.144,4.144,0,0,1-.587-.362,4.491,4.491,0,0,1-.513-.438,7.3,7.3,0,0,1-1.4-2.162,6.613,6.613,0,0,1-.5-2.538A6.54,6.54,0,0,1,4.931,4.939,6.32,6.32,0,0,1,9.443,3a6.351,6.351,0,0,1,4.65,1.863A6.527,6.527,0,0,1,16.043,9.5m-4.7,2.9,1.4,2.1,1.4,2.1h-4.2l1.5,2.2,1.5,2.2" fill="none" stroke-linecap="round" stroke-linejoin="round" stroke-width="2"/>
</svg>
