<svg xmlns="http://www.w3.org/2000/svg" viewBox="0 0 24 24" width="24" height="24" stroke="currentColor">
  <path d="M21,18.552A2.456,2.456,0,0,1,18.55,21H5.448A2.456,2.456,0,0,1,3,18.552V5.454A2.456,2.456,0,0,1,5.448,3.005h13.1A2.456,2.456,0,0,1,21,5.454ZM16.378,6.521a1.01,1.01,0,1,0,1.009,1.01A1.01,1.01,0,0,0,16.378,6.521Zm-8.85,8.816a1.01,1.01,0,1,0,1.009,1.01A1.01,1.01,0,0,0,7.528,15.337Zm4.4-4.437a1.01,1.01,0,1,0,1.009,1.01A1.01,1.01,0,0,0,11.924,10.9Z" fill="none" stroke-linecap="round" stroke-linejoin="round" stroke-width="2"/>
</svg>
