<svg xmlns="http://www.w3.org/2000/svg" viewBox="0 0 24 24" width="24" height="24" stroke="currentColor">
  <path d="M12,3A9,9,0,1,1,5.636,5.636,8.972,8.972,0,0,1,12,3Zm2.1,6.1a2.083,2.083,0,0,0-.863-.813A2.7,2.7,0,0,0,12,8a2.656,2.656,0,0,0-1.687.587,1.8,1.8,0,0,0-.363,2.5,2.045,2.045,0,0,0,.95.712,4.255,4.255,0,0,0,1.35.312,3.318,3.318,0,0,1,1.35.388,2.3,2.3,0,0,1,.588.675A1.693,1.693,0,0,1,14.4,14a1.848,1.848,0,0,1-.712,1.413,2.743,2.743,0,0,1-3.013.25A2.325,2.325,0,0,1,9.8,14.8M12,16v1.7M12,6.3V8" fill="none" stroke-linecap="round" stroke-linejoin="round" stroke-width="2"/>
</svg>
