<svg xmlns="http://www.w3.org/2000/svg" viewBox="0 0 24 24" width="24" height="24" stroke="currentColor" fill="none" stroke-linecap="round" stroke-linejoin="round" stroke-width="2">
  <path d="M20.477,3.523a1.747,1.747,0,0,0-1.024-.517,1.971,1.971,0,0,0-.266-.019,1.835,1.835,0,0,0-1.3.526l-3.8,3.8-3.8,3.8v2.6h2.6l3.8-3.8,3.8-3.8a1.59,1.59,0,0,0,.526-1.225A1.961,1.961,0,0,0,20.477,3.523Zm-1.59,9.889v5.4a2.221,2.221,0,0,1-2.2,2.2H5.187a2.221,2.221,0,0,1-2.2-2.2V7.313a2.22,2.22,0,0,1,2.2-2.2h5.4"/>
</svg>
