<svg xmlns="http://www.w3.org/2000/svg" viewBox="0 0 24 24" width="24" height="24" stroke="currentColor">
  <path d="M13.2,14.2a2.931,2.931,0,0,1-.6.225,2.466,2.466,0,0,1-.6.075A2.476,2.476,0,0,1,9.5,12a2.575,2.575,0,0,1,.15-.875,1.972,1.972,0,0,1,.45-.725m1.2-4.8H12a9.078,9.078,0,0,1,7.05,3.2A10.727,10.727,0,0,1,21,12a5.332,5.332,0,0,1-.262.65A8.949,8.949,0,0,1,19.8,14.2M16.9,17a9.48,9.48,0,0,1-2.188,1A9.154,9.154,0,0,1,12,18.4a9.078,9.078,0,0,1-7.05-3.2A10.727,10.727,0,0,1,3,12a10.076,10.076,0,0,1,.912-1.788A10.572,10.572,0,0,1,7,7M3,3l9,9,9,9" fill="none" stroke-linecap="round" stroke-linejoin="round" stroke-width="2"/>
</svg>
