<svg xmlns="http://www.w3.org/2000/svg" viewBox="0 0 20.003 16.203" width="24" height="24" stroke="currentColor">
  <path d="M8.8,2.5h0A1.538,1.538,0,0,0,7.3,1H2a.944.944,0,0,0-1,.886A.723.723,0,0,0,1,2V14.2a.944.944,0,0,0,.886,1A1.084,1.084,0,0,0,2,15.2H18a.946.946,0,0,0,1-.887,1.065,1.065,0,0,0,0-.113V5a.945.945,0,0,0-.887-1A.711.711,0,0,0,18,4H10.3a1.477,1.477,0,0,1-1.088-.45A1.516,1.516,0,0,1,8.8,2.5ZM8.179,9.449h3.646" fill="none" stroke-linecap="round" stroke-linejoin="round" stroke-width="2"/>
</svg>
