<svg xmlns="http://www.w3.org/2000/svg" viewBox="0 0 24 24" width="24" height="24" stroke="currentColor" fill="none" stroke-linecap="round" stroke-linejoin="round" stroke-width="2">
  <path d="M10.8,6.4h0A1.538,1.538,0,0,0,9.3,4.9H4a.945.945,0,0,0-1,.887A1.065,1.065,0,0,0,3,5.9V18.1a.945.945,0,0,0,.887,1A1.065,1.065,0,0,0,4,19.1H20a.945.945,0,0,0,1-.887,1.065,1.065,0,0,0,0-.113V8.9a.945.945,0,0,0-.887-1A1.065,1.065,0,0,0,20,7.9H12.3a1.48,1.48,0,0,1-1.088-.45A1.516,1.516,0,0,1,10.8,6.4Zm-.623,6.948h3.646"/>
</svg>
