<svg xmlns="http://www.w3.org/2000/svg" viewBox="0 0 24 24" width="24" height="24" stroke="currentColor" fill="none" stroke-linecap="round" stroke-linejoin="round" stroke-width="2">
  <path d="M2.55,19.03l1.49-6.35s.42-1.78.42-1.78h16.77s.08,0,.11,0c.51.03.81.48.65,1l-1.45,6.2s-.02.08-.03.11c-.15.52-.69.92-1.21.89H2.96s-.08,0-.11,0c-.52-.03-.92-.48-.89-1V5.9s0-.08,0-.11c.03-.52.48-.92,1-.89h5.3c.82.02,1.48.68,1.5,1.5h0c0,.39.14.77.41,1.05.28.29.68.46,1.09.45h7.7s.08,0,.11,0c.52.03.92.48.89,1v2"/>
</svg>