<svg xmlns="http://www.w3.org/2000/svg" viewBox="0 0 24 24" fill="none" stroke="currentColor" stroke-width="2" stroke-linecap="round" stroke-linejoin="round" stroke-miterlimit="10" width="24" height="24">
  <path d="M11.032,17.8A2.286,2.286,0,0,1,9.8,16.56c-.483-1.169.45-2.091,1.241-2.991L13.02,11.21a.724.724,0,0,1,1.275.529l-.265,3.069c-.077,1.2-.07,2.508-1.238,2.992a2.28,2.28,0,0,1-1.749,0Z" />
  <line x1="12" y1="6.024" x2="12" y2="7.868" />
  <line x1="18.718" y1="8.807" x2="17.414" y2="10.111" />
  <path d="M4.344,15.524H2.5a9.5,9.5,0,0,1,19,0H19.656" />
  <line x1="5.282" y1="8.807" x2="6.586" y2="10.111" />
</svg>
