<svg xmlns="http://www.w3.org/2000/svg" viewBox="0 0 24 24" width="24" height="24" stroke="currentColor">
  <path d="M9.368,14.235a2.9,2.9,0,0,1-3.583-1.423,2.414,2.414,0,0,1,1.87-3.045A3.411,3.411,0,0,1,9.325,9.7m.035,2.828v1.715m3.026-4.617V14.38m2.987,0,.02-4.759m0,0h2.454m-2.464,2.9h2.464M21,15.752V8.1a1.562,1.562,0,0,0-1.561-1.562H4.561A1.562,1.562,0,0,0,3,8.1v7.654a1.562,1.562,0,0,0,1.561,1.562H19.439A1.562,1.562,0,0,0,21,15.752Z" fill="none" stroke-linecap="round" stroke-linejoin="round" stroke-width="2"/>
</svg>
