<svg xmlns="http://www.w3.org/2000/svg" viewBox="0 0 24 24" width="24" height="24" stroke="currentColor">
  <path d="M7.2,19.031V20a.945.945,0,0,0,.887,1A1.065,1.065,0,0,0,8.2,21H20a.945.945,0,0,0,1-.887A.71.71,0,0,0,21,20V8.5H15.5V3H8.2a.946.946,0,0,0-1,.887A1.065,1.065,0,0,0,7.2,4V8.336M15.5,3l2.75,2.75L21,8.5M6.714,16.038a2.9,2.9,0,0,1-3.582-1.423A2.414,2.414,0,0,1,5,11.57a3.41,3.41,0,0,1,1.67-.072m.035,2.828v1.715m3.026-4.617v4.759m3.007-4.759-.02,4.759m.02-4.759h2.454m-2.464,2.9h2.464" fill="none" stroke-linecap="round" stroke-linejoin="round" stroke-width="2"/>
</svg>
