<svg xmlns="http://www.w3.org/2000/svg" viewBox="0 0 24 24" width="24" height="24" stroke="currentColor">
  <path
    d="M14.358,15.948l.7-1.576a1.315,1.315,0,0,1,1.534-.741c1.246.327,2.055.556,3.316.781a1.318,1.318,0,0,1,1.063,1.55l-.661,3.352a2.066,2.066,0,0,1-2.224,1.674A17.053,17.053,0,0,1,3.013,5.9,2.067,2.067,0,0,1,4.672,3.682l3.186-.655A1.317,1.317,0,0,1,9.414,4.064c.269,1.355.389,1.883.769,3.415a1.32,1.32,0,0,1-.7,1.5L8.5,9.463a18.541,18.541,0,0,0,2.123,3.254M21,8.778,19.554,7.333,18.11,5.889m0,0L16.665,7.333,15.221,8.778m0-5.778,1.444,1.444L18.11,5.889m0,0,1.444-1.445L21,3"
    fill="none" stroke-linecap="round" stroke-linejoin="round" stroke-width="2" />
</svg>