<svg xmlns="http://www.w3.org/2000/svg" viewBox="0 0 24 24" fill="none" stroke="currentColor" stroke-width="2" width="24" stroke-linecap="round"
  stroke-linejoin="round" stroke-miterlimit="10" height="24">
  <path id="d" data-name="heart-hand" d="m15.804,3.694c-.925-.925-2.425-.925-3.35,0l-.458.457-.52-.496c-.947-.903-2.447-.866-3.35.081-.872.915-.808,2.394.064,3.309l.457.457,3.35,3.35,3.35-3.35.457-.457c.925-.925.925-2.425,0-3.35h.001Zm-6.056,13.379h2.587c.893,0,1.778-.167,2.609-.494l4.014-1.194c.929-.229,1.858.38,2.018,1.324h0c.141.832-.369,1.637-1.183,1.863l-6.236,1.888c-1.171.355-2.414.401-3.608.135l-6.95-1.55m0-6.385h3.502c.666,0,1.319.182,1.889.525l.6.362c.57.344,1.223.525,1.889.525h1.049c.938,0,1.699.761,1.699,1.699v1.183"/>
</svg>