<svg xmlns="http://www.w3.org/2000/svg" viewBox="0 0 24 24" width="24" height="24" stroke="currentColor" fill="none" stroke-linecap="round" stroke-linejoin="round" stroke-width="2">
  <path d="M11.15,9.2l1.58-2.81h3.28s1.71,2.8,1.71,2.8l-1.58,2.81M12.85,12h3.28M17.84,14.8l-1.71-2.81M11.15,9.2l1.71,2.81M11.28,14.81l1.58-2.81M11.28,14.81h-3.28s-1.71-2.8-1.71-2.8l1.58-2.81h3.28M17.84,14.8l-1.58,2.81h-3.28s-1.71-2.8-1.71-2.8M3,12.02h3.28M6.42,17.63l1.58-2.81M16.27,17.61l1.71,2.81M16.01,6.39l1.58-2.81M17.71,9.19h3.28">
</svg>