<svg xmlns="http://www.w3.org/2000/svg" viewBox="0 0 24 24" width="24" height="24" stroke="currentColor" fill="none" stroke-linecap="round" stroke-linejoin="round" stroke-width="2">
  <path d="M7.775,16.431a12.35,12.35,0,0,1-3.134-5.415A12,12,0,0,1,13.458,12m3.815.014c-1.463-3.526-4.473-6.7-7.179-7.039a10.482,10.482,0,0,0,.271,5.889m2.316,4.87C6.129,15.807,3,18.914,3,18.914c5.16,3.935,13.114,1.053,13.114,1.053a13.314,13.314,0,0,1-2.259-2.179,5.47,5.47,0,0,1-1.409-3.755A2.306,2.306,0,0,1,15.1,11.72a4.6,4.6,0,0,1,1.335.588,1.386,1.386,0,0,0,1.442-.074A2.68,2.68,0,0,1,21,12.152a15.152,15.152,0,0,0-1.542-7.236,6.1,6.1,0,0,0-.843-1.151c-.07-.074-.812-.809-.886-.746a9.6,9.6,0,0,0-2.856,4.9"/>
</svg>
