<svg xmlns="http://www.w3.org/2000/svg" viewBox="0 0 24 24" width="24" height="24" stroke="currentColor">
  <path
    d="M15.087,15.428v-.484a2.645,2.645,0,0,1,.243-1.121,2.769,2.769,0,0,1,.7-.931,5.633,5.633,0,0,0,1.789-2.9,5.437,5.437,0,0,0-.245-3.358,5.749,5.749,0,0,0-2.2-2.638,6.22,6.22,0,0,0-6.752,0,5.749,5.749,0,0,0-2.2,2.638,5.437,5.437,0,0,0-.245,3.358,5.633,5.633,0,0,0,1.789,2.9,2.805,2.805,0,0,1,.7.937,2.667,2.667,0,0,1,.243,1.124v.484m.885,2.59h4.46m-3.989,2.958H13.8"
    fill="none" stroke-linecap="round" stroke-linejoin="round" stroke-width="2" />
</svg>