<svg xmlns="http://www.w3.org/2000/svg" viewBox="0 0 24 24" width="24" height="24" stroke="currentColor" fill="none" stroke-linecap="round" stroke-linejoin="round" stroke-width="2">
  <path d="M12.086,16.538l-2.8,2.8-.688.687a3.2,3.2,0,0,1-4.6,0m0,0a3.2,3.2,0,0,1,0-4.6l2.45-2.45,1.022-1.021m3.989-3.99,3.352-3.351.587-.588a3.253,3.253,0,1,1,4.6,4.6l-2.45,2.45L16.1,12.529M4.886,4.861l.723.724.724.723M5.161,9.2H3.025M9.227,3V5.137m9.887,14-.723-.724-.724-.723M18.839,14.8h2.136m-6.2,6.2V18.863"/>
</svg>
