<svg xmlns="http://www.w3.org/2000/svg" viewBox="0 0 24 24" width="24" height="24" stroke="currentColor" fill="none" stroke-linecap="round" stroke-linejoin="round" stroke-width="2">
  <path d="M8.722,16.163,7.366,15.49A2,2,0,0,1,6.255,13.7V10.946a1.854,1.854,0,0,1,1.35-1.784l3.155-.889a4.635,4.635,0,0,1,2.516,0l3.155.889a1.855,1.855,0,0,1,1.35,1.784v2.843a1.855,1.855,0,0,1-1.029,1.661l-1.438.713A7.411,7.411,0,0,1,8.722,16.163ZM6.766,9.672c0-3.107-3.661-3.638-3.781-.5s4.158,6.274,4.05,6.111m9.982.006c-.108.163,4.119-2.862,4-5.993s-3.777-2.767-3.777.34m-5.22,7.287,0-2.82"/>
</svg>
