<svg xmlns="http://www.w3.org/2000/svg" viewBox="0 0 24 24" width="24" height="24" stroke="currentColor" fill="none" stroke-linecap="round" stroke-linejoin="round" stroke-width="2">
  <path d="M18,15.57v.43c0,.22-.04.44-.13.64s-.2.38-.36.54c-.16.16-.34.28-.54.36-.2.08-.42.13-.64.13H6.33l-1.67,1.67-1.67,1.67V7.67c0-.22.04-.44.13-.64.08-.2.2-.38.36-.54.16-.16.34-.28.54-.36.2-.08.42-.13.64-.13h4.51M14.32,12.21h4.25c.72,0,1.35-.48,1.54-1.17l.85-3.1c.22-.8-.38-1.58-1.21-1.58h-.11c-.55,0-.86,0-1.66,0,.07-.51.25-1,.34-1.5.1-.59.1-1.36-.49-1.68-.5-.27-1.16-.2-1.63.11-.62.41-.83,1.32-1.18,1.95-.39.69-.82,1.38-1.34,1.98l-1.18.05c-.28,0-.5.22-.5.5v3.95c0,.28.22.5.5.5h1.82Z"/>
</svg>
