<svg xmlns="http://www.w3.org/2000/svg" viewBox="0 0 24 24" width="24" height="24" stroke="currentColor" fill="none" stroke-linecap="round" stroke-linejoin="round" stroke-width="2">
  <path d="M10.13,3.8A2.816,2.816,0,0,1,12.092,3h0a2.816,2.816,0,0,1,1.963.8,2.771,2.771,0,0,1,.837,2V8.75m-1.07,5.122a2.759,2.759,0,0,1-1.73.628,2.816,2.816,0,0,1-1.962-.8,2.768,2.768,0,0,1-.838-2V9.334M16.04,16.18A5.9,5.9,0,0,1,6.192,11.8m11.8,0c0,.147-.005.293-.016.438M12.092,17.7V21m-2.8,0h5.6M3,3l8.875,8.875.981.981L21,21"/>
</svg>
