<svg xmlns="http://www.w3.org/2000/svg" viewBox="0 0 24 24"  width="24" height="24" stroke="currentColor" fill="none" stroke-linecap="round" stroke-linejoin="round" stroke-width="2">
  <path d="M13.606,11.978a1.569,1.569,0,0,0-.66-.6A2.112,2.112,0,0,0,12,11.164a2.073,2.073,0,0,0-1.29.435,1.3,1.3,0,0,0-.278,1.85,1.56,1.56,0,0,0,.727.527,3.348,3.348,0,0,0,1.032.231,2.612,2.612,0,0,1,1.033.287,1.709,1.709,0,0,1,.449.5,1.221,1.221,0,0,1,.162.611,1.349,1.349,0,0,1-.545,1.045,2.073,2.073,0,0,1-1.29.435,2.1,2.1,0,0,1-1.013-.25,1.743,1.743,0,0,1-.669-.638M12,17.084v1.258m0-8.436v1.258m3.066-4.072,4.87,5.528A5.629,5.629,0,0,1,21,15.99v.188C21,18.841,19.326,21,17.262,21H6.738C4.674,21,3,18.841,3,16.178H3a5.637,5.637,0,0,1,1.041-3.339L8.936,7.092M16.482,3A13.389,13.389,0,0,1,12,3.536,13.786,13.786,0,0,1,7.518,3L8.742,7.092h6.533Z"/>
</svg>
