<svg xmlns="http://www.w3.org/2000/svg" viewBox="0 0 24 24" width="24" height="24" stroke="currentColor" fill="none" stroke-linecap="round" stroke-linejoin="round" stroke-width="2">
  <path d="M18.875,20.98V20.9m-2.13-6.26a2.13,2.13,0,0,1,4.26,0,2.046,2.046,0,0,1-.21.77,1.879,1.879,0,0,1-.51.61c-.42.39-.95.75-1.41,1.21m-5.27.38a7.512,7.512,0,0,1-3,.61A7.61,7.61,0,0,1,3,10.61v-.02A7.59,7.59,0,0,1,17.611,7.737q.043.106.084.213M7.505,12.16a3.882,3.882,0,0,0,1.34,1.08,4.03,4.03,0,0,0,1.67.43,4.071,4.071,0,0,0,3.01-1.51M8.255,8.4h0m4.51,0h0"/>
</svg>
