<svg xmlns="http://www.w3.org/2000/svg" viewBox="0 0 24 24" width="24" height="24" stroke="currentColor" fill="none" stroke-linecap="round" stroke-linejoin="round" stroke-width="2">
  <line x1="13.033" y1="4.418" x2="20.289" y2="14.504"/>
  <path d="M13.033,4.418,2.65,12.348a1.739,1.739,0,0,0-.7,1.062,1.542,1.542,0,0,0,.268,1.218l4.716,6.556a1.565,1.565,0,0,0,1.052.616,1.713,1.713,0,0,0,1.247-.3l10.383-7.931"/>
  <path d="M13.674,1.053V12.418h0a2.086,2.086,0,1,1-3.559-1.476"/>
  <path d="M20.29,18l1.419,2.111h0a1.792,1.792,0,1,1-2.936.14h0l.007-.011Z"/>
</svg>
