<svg xmlns="http://www.w3.org/2000/svg" viewBox="0 0 24 24" width="24" height="24" stroke="currentColor">
  <path d="M4.846,10.148A1.853,1.853,0,1,1,2.994,12,1.852,1.852,0,0,1,4.846,10.148ZM15.58,4.082a1.843,1.843,0,0,0-1.222.46h0a3.561,3.561,0,0,1-4.713-.009h0a1.852,1.852,0,1,0,.01,2.792,3.562,3.562,0,0,1,4.7,0,1.852,1.852,0,1,0,1.223-3.244Zm3.561,6.066a1.845,1.845,0,0,0-1.222.46h0a3.561,3.561,0,0,1-4.713-.007h0a1.852,1.852,0,1,0,.01,2.792,3.562,3.562,0,0,1,4.7,0,1.852,1.852,0,1,0,1.223-3.244Zm-3.574,6.067a1.842,1.842,0,0,0-1.222.46h0a3.562,3.562,0,0,1-4.713-.01h0a1.852,1.852,0,1,0,.011,2.792,3.561,3.561,0,0,1,4.7,0,1.852,1.852,0,1,0,1.222-3.242ZM4.846,10.149A1.852,1.852,0,1,1,2.994,12,1.852,1.852,0,0,1,4.846,10.149Z" fill="none" stroke-linecap="round" stroke-linejoin="round" stroke-width="2"/>
</svg>
