<svg xmlns="http://www.w3.org/2000/svg" viewBox="0 0 19.995 20" width="24" height="24" stroke="currentColor">
  <path d="M19,1,12.914,7.015m0-6.015V7.015H19m-10.376,3.7A18.579,18.579,0,0,1,6.5,7.463l.987-.481a1.321,1.321,0,0,0,.7-1.5c-.38-1.532-.5-2.06-.769-3.415A1.318,1.318,0,0,0,5.856,1.027L2.67,1.682A2.067,2.067,0,0,0,1.012,3.9,17.052,17.052,0,0,0,16.085,18.988a2.067,2.067,0,0,0,2.224-1.674l.661-3.352a1.319,1.319,0,0,0-1.063-1.55c-1.261-.225-2.071-.454-3.316-.781a1.316,1.316,0,0,0-1.535.741l-.7,1.576" fill="none" stroke-linecap="round" stroke-linejoin="round" stroke-width="2"/>
</svg>
