<svg xmlns="http://www.w3.org/2000/svg" viewBox="0 0 24 24" width="24" height="24" stroke="currentColor">
  <path d="M19,1,1,19m7.956-7.98A12.109,12.109,0,0,1,6.5,7.463l.987-.481a1.32,1.32,0,0,0,.7-1.5c-.38-1.532-.5-2.06-.768-3.415A1.318,1.318,0,0,0,5.859,1.027l-3.186.655A2.067,2.067,0,0,0,1.014,3.9,17.054,17.054,0,0,0,16.087,18.988a2.065,2.065,0,0,0,2.224-1.674l.662-3.352a1.319,1.319,0,0,0-1.063-1.55c-1.261-.225-2.071-.454-3.316-.781a1.315,1.315,0,0,0-1.535.741l-.7,1.576" fill="none" stroke-linecap="round" stroke-linejoin="round" stroke-width="2"/>
</svg>
