<svg xmlns="http://www.w3.org/2000/svg" viewBox="0 0 24 24" width="24" height="24" stroke="currentColor">
  <path d="M12.357,13.948l.7-1.576a1.316,1.316,0,0,1,1.535-.741c1.245.327,2.055.556,3.316.781a1.319,1.319,0,0,1,1.063,1.55l-.661,3.352a2.067,2.067,0,0,1-2.224,1.674A17.052,17.052,0,0,1,1.012,3.9,2.067,2.067,0,0,1,2.67,1.682l3.186-.655A1.318,1.318,0,0,1,7.413,2.064c.268,1.355.389,1.883.769,3.415a1.321,1.321,0,0,1-.7,1.5L6.5,7.463a18.579,18.579,0,0,0,2.124,3.254m4.565-3.9L19,1m0,6.046V1H12.951" fill="none" stroke-linecap="round" stroke-linejoin="round" stroke-width="2"/>
</svg>
