<svg xmlns="http://www.w3.org/2000/svg" viewBox="0 0 24 24" width="24" height="24" stroke="currentColor">
  <path d="M14.36,15.948l.7-1.576a1.315,1.315,0,0,1,1.535-.741c1.245.327,2.055.556,3.316.781a1.319,1.319,0,0,1,1.063,1.55l-.662,3.352a2.065,2.065,0,0,1-2.224,1.674A17.054,17.054,0,0,1,3.014,5.9,2.067,2.067,0,0,1,4.673,3.682l3.186-.655A1.318,1.318,0,0,1,9.416,4.064c.268,1.355.388,1.883.768,3.415a1.32,1.32,0,0,1-.7,1.5L8.5,9.463a18.541,18.541,0,0,0,2.123,3.254m4.286-3.624L21,3M14.907,3,21,9.093" fill="none" stroke-linecap="round" stroke-linejoin="round" stroke-width="2"/>
</svg>
