<svg xmlns="http://www.w3.org/2000/svg" viewBox="0 0 24 24" width="24" height="24" stroke="currentColor">
  <path d="M12.2,20.99c-.066,0-.129.01-.2.01s-.132-.009-.2-.01m0,0a10.285,10.285,0,0,0,.2-1.968m0-.064A10.264,10.264,0,0,0,3.562,8.893a8.973,8.973,0,0,0,8.24,12.1m.2-1.968,0-.032,0-.032m0,0v.064m0,0a10.285,10.285,0,0,0,.2,1.968m0,0a8.971,8.971,0,0,0,8.242-12.1A10.267,10.267,0,0,0,12,18.958m4.016-8.333a9.26,9.26,0,0,0-4-7.625,9.263,9.263,0,0,0-4,7.625" fill="none" stroke-linecap="round" stroke-linejoin="round" stroke-width="2"/>
</svg>
