<svg xmlns="http://www.w3.org/2000/svg" viewBox="0 0 24 24" width="24" height="24" stroke="currentColor">
  <circle
    cx="12"
    cy="7.8"
    r="2.54"
    fill="none"
    stroke-miterlimit="10"
    stroke-width="2"
  />
  <path
    d="M20.99,12.73c.03,1.26-.96,2.3-2.22,2.35-1.94,0-3.76,.97-4.83,2.59-.43,.65-1.16,1.04-1.94,1.04-.79-.02-1.52-.41-1.96-1.07-1.07-1.6-2.87-2.57-4.79-2.56-1.09-.03-2.02-.82-2.21-1.9-.19-1.07,.36-2.14,1.35-2.59,1.01-.47,2.21-.15,2.86,.75,.6,.89,1.41,1.62,2.37,2.1,2.4,1.14,5.26,.41,6.82-1.74,.35-.58,.9-1.02,1.55-1.23,1.25-.35,2.55,.38,2.9,1.63,.06,.2,.08,.41,.09,.62Z"
    fill="none"
    stroke-linecap="round"
    stroke-linejoin="round"
    stroke-width="2"
  />
</svg>
