<svg xmlns="http://www.w3.org/2000/svg" viewBox="0 0 24 24" width="24" height="24" stroke="currentColor" fill="none" stroke-linecap="round" stroke-linejoin="round" stroke-width="2">
  <path d="M10.4,12.4v3.7M10.4,12.4v-.6c0-2.9-1.7-3.2-3.8-4.4M10.4,16.1v4.9M3,3c.3,1,.6,2.5,2.6,3.8.4.2.7.4,1,.6M5,10.6c-.2.5-.4,1.3-.5,1.9-.2,2.6,2.7,5,5.9,3.7M3,9c.2.3.5.6.8.8.3.2.6.4.9.6.6.4,1.2.7,1.9,1,.7.3,1.4.5,2.1.7.6.2,1.2.3,1.9.4M13.6,12.4v3.7M17.4,7.4c-2.1,1.2-3.8,1.5-3.8,4.4v.6M13.6,16.1v4.9M17.4,7.4c.3-.2.7-.4,1-.6,2-1.3,2.2-2.8,2.6-3.8M13.6,16.2c3.2,1.3,6.1-1.1,5.9-3.7,0-.6-.3-1.4-.5-1.9M13.6,12.4c.6,0,1.3-.2,1.9-.4.7-.2,1.4-.4,2.1-.7.6-.3,1.3-.6,1.9-1,.3-.2.6-.4.9-.6.3-.2.5-.5.8-.8"/>
</svg>