<svg xmlns="http://www.w3.org/2000/svg" viewBox="0 0 24 24" width="24" height="24" stroke="currentColor">
  <path d="M9.961,12H5.978A2.978,2.978,0,0,1,3,9.024V7.73A2.978,2.978,0,0,1,5.978,4.752H6.984A2.977,2.977,0,0,1,9.961,7.73ZM3,19.248H4.639a5.322,5.322,0,0,0,5.322-5.322V9.535M21,7.73a2.978,2.978,0,0,0-2.978-2.978H17.016A2.978,2.978,0,0,0,14.038,7.73V9.024A2.978,2.978,0,0,0,17.016,12H21ZM14.039,19.248h1.639A5.322,5.322,0,0,0,21,13.926V9.535" fill="none" stroke-linecap="round" stroke-linejoin="round" stroke-width="2"/>
</svg>
