<svg xmlns="http://www.w3.org/2000/svg" viewBox="0 0 24 24" width="24" height="24" stroke="currentColor" fill="none" stroke-linecap="round" stroke-linejoin="round" stroke-width="2">
  <path d="M16.15,18.89c-.16.05-.27.2-.27.37l-.02,2.45c-2.77-3.27-7.97-9.72-9.61-12.86-.2-.39-.27-.86-.19-1.33.16-.89.94-2.7,1.92-4.31.18,2,1.47,4.59,3.85,7.72,1.61,2.22,5.34,6.19,6.72,7.46l-2.4.5h0ZM12,11.16c.06-.08.12-.16.17-.23,2.38-3.14,3.67-5.73,3.85-7.72.98,1.61,1.77,3.42,1.92,4.31.08.47.01.94-.19,1.33-.68,1.29-1.96,3.15-3.43,5.12M16.02,3.21c-1.08-.57-2.48-.92-4.02-.92s-2.94.34-4.02.92M14.95,6.58c-.88-.29-1.88-.46-2.95-.46s-2.08.17-2.95.46M12,16.99c-1.42,1.79-2.81,3.48-3.86,4.72l-.02-2.45c0-.17-.11-.32-.27-.37h0s-2.4-.5-2.4-.5c.86-.79,2.63-2.62,4.23-4.42"/>
</svg>