<svg xmlns="http://www.w3.org/2000/svg" viewBox="0 0 24 24" width="24" height="24" stroke="currentColor">
  <path d="M6.726,17.513v.009m0-10.884v.009M2.988,4.841A1.858,1.858,0,0,1,4.84,2.989H19.148A1.858,1.858,0,0,1,21,4.841V8.114a1.858,1.858,0,0,1-1.852,1.852H4.84A1.858,1.858,0,0,1,2.988,8.114Zm0,11.045A1.858,1.858,0,0,1,4.84,14.034H19.148A1.858,1.858,0,0,1,21,15.886v3.273a1.858,1.858,0,0,1-1.852,1.852H4.84a1.858,1.858,0,0,1-1.852-1.852Z" fill="none" stroke-linecap="round" stroke-linejoin="round" stroke-width="2"/>
</svg>
