<svg xmlns="http://www.w3.org/2000/svg" viewBox="0 0 24 24" width="24" height="24" stroke="currentColor">
  <path d="M4.738,15.524v.009m0-10.885v.009M1,2.852A1.857,1.857,0,0,1,2.852,1H17.16a1.857,1.857,0,0,1,1.852,1.852V6.124A1.857,1.857,0,0,1,17.16,7.976H2.852A1.857,1.857,0,0,1,1,6.124ZM1,13.9a1.857,1.857,0,0,1,1.852-1.852H17.16A1.857,1.857,0,0,1,19.012,13.9V17.17a1.857,1.857,0,0,1-1.852,1.851H2.852A1.857,1.857,0,0,1,1,17.17Z" fill="none" stroke-linecap="round" stroke-linejoin="round" stroke-width="2"/>
</svg>
