<svg xmlns="http://www.w3.org/2000/svg" viewBox="0 0 24 24" width="24" height="24" stroke="currentColor" fill="none" stroke-linecap="round" stroke-linejoin="round" stroke-width="2">
  <path d="M21,11.95h0a1.967,1.967,0,0,0-1.9-1.9h-.6a1.923,1.923,0,0,1-1.675-.95A1.815,1.815,0,0,1,16.8,7.25L16.95,7l.15-.25a1.965,1.965,0,0,0,.175-1.45A1.837,1.837,0,0,0,16.4,4.15h0a1.965,1.965,0,0,0-1.45-.175,1.837,1.837,0,0,0-1.15.875l-.15.25-.15.25a1.809,1.809,0,0,1-1.613.975A1.982,1.982,0,0,1,10.2,5.35l-.1-.2-.1-.2a1.808,1.808,0,0,0-1.1-.875,1.852,1.852,0,0,0-1.4.175h0a2.09,2.09,0,0,0-.875,1.188A1.876,1.876,0,0,0,6.8,6.85l.15.25.15.25a1.914,1.914,0,0,1-.012,1.888A1.82,1.82,0,0,1,5.5,10.15H4.9A1.967,1.967,0,0,0,3,12.05H3a1.967,1.967,0,0,0,1.9,1.9h.6a1.923,1.923,0,0,1,1.675.95A1.815,1.815,0,0,1,7.2,16.75L7.05,17l-.15.25a1.965,1.965,0,0,0-.175,1.45A1.837,1.837,0,0,0,7.6,19.85h0a1.965,1.965,0,0,0,1.45.175,1.837,1.837,0,0,0,1.15-.875l.15-.25.15-.25a1.809,1.809,0,0,1,1.613-.975,1.982,1.982,0,0,1,1.687.975l.15.25.15.25a1.837,1.837,0,0,0,1.15.875,1.965,1.965,0,0,0,1.45-.175h0a1.837,1.837,0,0,0,.875-1.15,1.965,1.965,0,0,0-.175-1.45L17.25,17l-.15-.25a1.912,1.912,0,0,1,.013-1.888A1.817,1.817,0,0,1,18.7,13.95h.6a1.886,1.886,0,0,0,1.188-.625A2.046,2.046,0,0,0,21,11.95Zm-9-1.9a2,2,0,1,1-1.414.586A1.994,1.994,0,0,1,12,10.05Z"/>
</svg>
