<svg xmlns="http://www.w3.org/2000/svg" viewBox="0 0 24 24" width="24" height="24" stroke="currentColor">
  <path d="M18.112,17.391a1.629,1.629,0,1,1-1.629-1.629A1.629,1.629,0,0,1,18.112,17.391ZM7.941,15.762a1.629,1.629,0,1,0,1.628,1.629A1.629,1.629,0,0,0,7.941,15.762ZM1,1H2.678A2.113,2.113,0,0,1,4.643,2.573l2.051,9.152A2.114,2.114,0,0,0,8.659,13.3h6.788a2.153,2.153,0,0,0,1.989-1.568L18.957,6.8a1.233,1.233,0,0,0-1.236-1.588L9.4,5.058" fill="none" stroke-linecap="round" stroke-linejoin="round" stroke-width="2"/>
</svg>
