<svg xmlns="http://www.w3.org/2000/svg" viewBox="0 0 24 24" width="24" height="24" stroke="currentColor">
  <path d="M20.112,19.4a1.629,1.629,0,1,1-1.629-1.629A1.63,1.63,0,0,1,20.112,19.4ZM9.941,17.768A1.629,1.629,0,1,0,11.569,19.4,1.629,1.629,0,0,0,9.941,17.768ZM3,3.006H4.678A2.113,2.113,0,0,1,6.643,4.579l2.051,9.152a2.114,2.114,0,0,0,1.965,1.574h6.788a2.153,2.153,0,0,0,1.989-1.568L20.957,8.8a1.233,1.233,0,0,0-1.236-1.588L11.4,7.064" fill="none" stroke-linecap="round" stroke-linejoin="round" stroke-width="2"/>
</svg>
