<svg xmlns="http://www.w3.org/2000/svg" viewBox="0 0 24 24" width="24" height="24" stroke="currentColor">
  <path d="M2.319,11.929m18.31,5.64M17.406,14.6l3.223,2.965L17.406,20.91m0-17.2,3.223,2.9L17.406,9.883m1.9-3.129c-2.187-.022-3.8-.143-4.611.268-1.879.955-5.438,8.734-7.564,10.156-.865.579-2.864.525-4.142.479m6-8.082A15.7,15.7,0,0,0,6.827,7.3c-1.016-.674-2.293-.594-3.837-.568m9.469,8.351A7.594,7.594,0,0,0,14.7,17.444c.8.437,3.746.147,5.933.125" fill="none" stroke-linecap="round" stroke-linejoin="round" stroke-width="2"/>
</svg>
