<svg xmlns="http://www.w3.org/2000/svg" viewBox="0 0 24 24" width="24" height="24" stroke="currentColor">
  <path d="M12.913,13.468H11.222A1.732,1.732,0,0,1,9.49,11.736v-.693a1.732,1.732,0,0,1,1.732-1.732h1.691a1.731,1.731,0,0,1,1.732,1.732v.693A1.731,1.731,0,0,1,12.913,13.468Zm4.933-1.732v-.693a1.731,1.731,0,0,1,1.731-1.732H21V9.156a6.143,6.143,0,0,0-6.143-6.143H9.4A6.314,6.314,0,0,0,3,8.964a6.141,6.141,0,0,0,2.989,5.467A6.184,6.184,0,0,1,9.132,19.7h0a1.291,1.291,0,0,0,1.29,1.29H19a2,2,0,0,0,2-2V13.468H19.577A1.731,1.731,0,0,1,17.846,11.736ZM21,9.311v4.157m-4.474,1.8-.613.613h1.164m-3.6,3.346v1.762m3.783-1.762v1.762m2.759,0" fill="none" stroke-linecap="round" stroke-linejoin="round" stroke-width="2"/>
</svg>
