<svg xmlns="http://www.w3.org/2000/svg" viewBox="0 0 20 20" width="24" height="24" stroke="currentColor">
  <path d="M11.743,11.068H19v2.468H11.743ZM17.524,5.48A1.476,1.476,0,1,0,19,6.956,1.476,1.476,0,0,0,17.524,5.48Zm-9.267.984H1V8.932H8.257ZM2.476,14.52A1.476,1.476,0,1,0,1,13.044,1.476,1.476,0,0,0,2.476,14.52Zm11.06-6.263V1H11.068V8.257ZM5.48,2.476A1.476,1.476,0,1,0,6.956,1,1.476,1.476,0,0,0,5.48,2.476Zm.984,9.267V19H8.932V11.743Zm8.056,5.781A1.476,1.476,0,1,0,13.044,19,1.476,1.476,0,0,0,14.52,17.524Z" fill="none" stroke-linecap="round" stroke-linejoin="round" stroke-width="2"/>
</svg>
