<svg xmlns="http://www.w3.org/2000/svg" viewBox="0 0 24 24" width="24" height="24" stroke="currentColor">
  <path d="M13.743,13.068H21v2.468H13.743ZM19.524,7.48A1.476,1.476,0,1,0,21,8.956,1.476,1.476,0,0,0,19.524,7.48Zm-9.267.984H3v2.468h7.257ZM4.476,16.52A1.476,1.476,0,1,0,3,15.044,1.476,1.476,0,0,0,4.476,16.52Zm11.06-6.263V3H13.068v7.257ZM7.48,4.476A1.476,1.476,0,1,0,8.956,3,1.476,1.476,0,0,0,7.48,4.476Zm.984,9.267V21h2.468V13.743Zm8.056,5.781A1.476,1.476,0,1,0,15.044,21,1.476,1.476,0,0,0,16.52,19.524Z" fill="none" stroke-linecap="round" stroke-linejoin="round" stroke-width="2"/>
</svg>
