<svg xmlns="http://www.w3.org/2000/svg" viewBox="0 0 24 24" width="24" height="24" stroke="currentColor" fill="none" stroke-linecap="round" stroke-linejoin="round" stroke-width="2">
  <path d="M17.51,3.23v4.11M20.71,9.08v3.13M19.75,10.65h1.92M16.21,5.28h2.59M11.5,20.12c-3.11.73-6.31-1.04-7.31-4.13-.76-2.34-.05-4.81,1.62-6.4M14.37,18.57c1.67-1.59,2.38-4.06,1.62-6.4-.98-3.01-4.04-4.77-7.07-4.18M14.37,18.57l1.74-.35,1.74-.35M14.37,18.57l-.21-1.89-.21-1.89M2.33,10.28l1.74-.35,1.74-.35.21,1.89.21,1.89"/>
</svg>
