<svg xmlns="http://www.w3.org/2000/svg" viewBox="0 0 24 24" width="24" height="24" stroke="currentColor" fill="none" stroke-linecap="round" stroke-linejoin="round" stroke-width="2">
  <path d="M19.36,16.71c-1.2.98-1.84,2.13-2.37,3.9-.1.34-.67.34-.78,0-.53-1.77-1.19-2.9-2.38-3.89-.17-.14-.17-.4,0-.54,1.23-1.03,1.88-2.41,2.38-4.24.1-.35.67-.35.77,0,.49,1.74,1.13,3.14,2.39,4.24.17.14.16.39,0,.53h-.01ZM4.71,9.85c-.27-.19-.27-.53,0-.72,1.95-1.38,2.98-3.22,3.78-5.66.15-.47,1.07-.47,1.23,0,.77,2.33,1.79,4.18,3.79,5.65.26.19.26.53-.01.71-1.91,1.3-2.93,2.84-3.77,5.2-.16.46-1.07.46-1.24,0-.84-2.37-1.88-3.87-3.78-5.19h0Z"/>
</svg>