<?xml version="1.0" encoding="UTF-8"?><svg id="a" xmlns="http://www.w3.org/2000/svg" viewBox="0 0 24 24"><path d="M16.72,5.48c-.46-.78-1.13-1.42-1.94-1.83-.86-.43-1.82-.65-2.78-.65-1.38-.01-2.72.46-3.8,1.32-1.76,1.34-2.13,3.84-.82,5.62.54.73,1.28,1.29,2.14,1.6.97.4,1.99.64,3.04.7,1.06.07,2.1.37,3.04.87.54.41.99.93,1.32,1.52.31.57.48,1.21.48,1.86-.03,1.25-.62,2.41-1.6,3.18-1.94,1.53-4.61,1.75-6.78.56-.82-.46-1.5-1.13-1.97-1.94M4.54,12h14.93" fill="none" stroke="#000" stroke-linecap="round" stroke-linejoin="round" stroke-width="2"/></svg>