<svg xmlns="http://www.w3.org/2000/svg" viewBox="0 0 24 24" width="24" height="24" stroke="currentColor">
  <path d="M3,3V21H21M3,16.9a6.526,6.526,0,0,0,1.813-.85A3.9,3.9,0,0,0,6.1,14.6c.3-.55.45-1.35.75-2.013A1.716,1.716,0,0,1,8.5,11.4c1.15,0,1.575.875,2.025,1.75S11.45,14.9,12.7,14.9c.95,0,1.525-.725,1.887-1.625A11.843,11.843,0,0,0,15.2,10.6a30.888,30.888,0,0,1,.512-3.138A3.472,3.472,0,0,1,17.5,5a1.987,1.987,0,0,1,2.2.275A4.4,4.4,0,0,1,21,7.2" fill="none" stroke-linecap="round" stroke-linejoin="round" stroke-width="2"/>
</svg>
