<svg xmlns="http://www.w3.org/2000/svg" viewBox="0 0 24 24" width="24" height="24" stroke="currentColor" fill="none" stroke-linecap="round" stroke-linejoin="round" stroke-width="2">
  <path d="M12,16.1c-1.24,0-2.28.94-2.69,2.27-.3.98-.89,1.48-2.01,1.48-3.02,0-4.3-4.73-4.3-8.31,0-1.68.32-3.65.96-5.15.5-1.16,1.3-2.43,2.76-2.21,2.87.43,1.17,4.39,2.39,6.13.79,1.12,1.58,1.73,2.89,1.73h0c1.32,0,2.11-.61,2.9-1.73,1.21-1.73-.48-5.7,2.39-6.13,1.46-.22,2.26,1.05,2.76,2.21.64,1.5.96,3.47.96,5.15,0,3.57-1.28,8.3-4.3,8.3-1.12,0-1.7-.5-2.01-1.48-.41-1.33-1.45-2.27-2.69-2.27,0,0,0,0,0,0Z">
</svg>