<svg xmlns="http://www.w3.org/2000/svg" viewBox="0 0 24 24"  width="24" height="24" stroke="currentColor" fill="none" stroke-linecap="round" stroke-linejoin="round" stroke-width="2">
  <path d="M7.54,5.86a2.109,2.109,0,0,0-.87-.83,2.688,2.688,0,0,0-1.249-.294,2.658,2.658,0,0,0-1.7.6,1.852,1.852,0,0,0-.366,2.553,2.066,2.066,0,0,0,.958.728,4.278,4.278,0,0,0,1.362.319,3.311,3.311,0,0,1,1.362.4,2.337,2.337,0,0,1,.593.689,1.739,1.739,0,0,1,.214.843,1.892,1.892,0,0,1-.718,1.442,2.739,2.739,0,0,1-3.04.256,2.36,2.36,0,0,1-.882-.881m2.219,1.225v1.736M5.421,3V4.736m5.351,9.038H21m0-6H10.772M3,19.774H21"/>
</svg>
