<svg xmlns="http://www.w3.org/2000/svg" viewBox="0 0 24 24" width="24" height="24" stroke="currentColor">
  <path d="M21,18.485a2.446,2.446,0,0,1-2.439,2.439H5.515a2.445,2.445,0,0,1-2.439-2.439V5.439A2.446,2.446,0,0,1,5.515,3H18.561A2.447,2.447,0,0,1,21,5.439ZM16.832,7.12a.545.545,0,0,0-.543-.543H14.408a.545.545,0,0,0-.543.543v4.285a.544.544,0,0,0,.543.543h1.881a.544.544,0,0,0,.543-.543Zm-6.469,0a.545.545,0,0,0-.543-.543H7.939A.545.545,0,0,0,7.4,7.12v7.938a.545.545,0,0,0,.543.543H9.82a.545.545,0,0,0,.543-.543Z" fill="none" stroke-linecap="round" stroke-linejoin="round" stroke-width="2"/>
</svg>
