<svg xmlns="http://www.w3.org/2000/svg" viewBox="0 0 19.924 19.924" width="24" height="24" stroke="currentColor">
  <path d="M18.924,16.485a2.445,2.445,0,0,1-2.439,2.439H3.439A2.446,2.446,0,0,1,1,16.485V3.439A2.447,2.447,0,0,1,3.439,1H16.485a2.446,2.446,0,0,1,2.439,2.439ZM14.757,5.12a.546.546,0,0,0-.544-.543H12.332a.545.545,0,0,0-.543.543V9.4a.544.544,0,0,0,.543.543h1.881a.545.545,0,0,0,.544-.543Zm-6.469,0a.546.546,0,0,0-.544-.543H5.863a.545.545,0,0,0-.543.543v7.938a.545.545,0,0,0,.543.543H7.744a.546.546,0,0,0,.544-.543Z" fill="none" stroke-linecap="round" stroke-linejoin="round" stroke-width="2"/>
</svg>
