<svg xmlns="http://www.w3.org/2000/svg" viewBox="0 0 24 24" width="24" height="24" stroke="currentColor">
  <path d="M11.111,4.163,7.13,11.428,3.149,18.693a.974.974,0,0,0,0,1.007,1.032,1.032,0,0,0,.9.485H19.968a.953.953,0,0,0,.858-.485,1.135,1.135,0,0,0,.037-1.007l-3.98-7.265L12.9,4.163a1.119,1.119,0,0,0-1.791,0Zm-.9.5L6.732,11.03,3.249,17.4a2.03,2.03,0,0,0,.037,1.978A1.989,1.989,0,0,0,5.04,20.384H18.973a2,2,0,0,0,1.716-.97,2.062,2.062,0,0,0,.075-2.015L17.281,11.03,13.8,4.661a2.058,2.058,0,0,0-3.583,0Z" fill="none" stroke-linecap="round" stroke-linejoin="round" stroke-width="2"/>
</svg>
