<svg xmlns="http://www.w3.org/2000/svg" viewBox="0 0 24 24" width="24" height="24" stroke="currentColor">
  <path d="M13.666,10.054a1.584,1.584,0,0,1-1.58,1.579H2.579A1.584,1.584,0,0,1,1,10.054V2.579A1.584,1.584,0,0,1,2.579,1h9.507a1.584,1.584,0,0,1,1.58,1.579Zm-3.474,1.579H19V9.469a3.984,3.984,0,0,0-1.166-2.816h0a3.982,3.982,0,0,0-2.816-1.166h-1.35m1.8,6.154A2.061,2.061,0,1,0,17.532,13.7,2.061,2.061,0,0,0,15.471,11.641Zm-10.234,0A2.061,2.061,0,1,0,7.3,13.7,2.061,2.061,0,0,0,5.237,11.641Z" fill="none" stroke-linecap="round" stroke-linejoin="round" stroke-width="2"/>
</svg>
