<svg xmlns="http://www.w3.org/2000/svg" viewBox="0 0 24 24" width="24" height="24" stroke="currentColor">
  <path d="M15.666,13.673a1.584,1.584,0,0,1-1.58,1.579H4.579A1.584,1.584,0,0,1,3,13.673V6.2A1.584,1.584,0,0,1,4.579,4.619h9.507A1.584,1.584,0,0,1,15.666,6.2Zm-3.474,1.579H21V13.087a3.982,3.982,0,0,0-1.166-2.815h0a3.983,3.983,0,0,0-2.816-1.167h-1.35m1.8,6.154a2.061,2.061,0,1,0,2.061,2.061A2.061,2.061,0,0,0,17.471,15.259Zm-10.234,0A2.061,2.061,0,1,0,9.3,17.32,2.061,2.061,0,0,0,7.237,15.259Z" fill="none" stroke-linecap="round" stroke-linejoin="round" stroke-width="2"/>
</svg>
