<svg xmlns="http://www.w3.org/2000/svg" viewBox="0 0 24 24" width="24" height="24" stroke="currentColor" fill="none" stroke-linecap="round" stroke-linejoin="round" stroke-width="2">
  <path d="M15.588,7.8a5.437,5.437,0,0,1,1.8,0,4.276,4.276,0,0,1,2.237,1.175A4.612,4.612,0,0,1,20.888,11.2a4.478,4.478,0,0,1-.088,2.413A4.356,4.356,0,0,1,19.588,15.5m-15.4-1.1a7.176,7.176,0,0,1-.9-1.875,6.847,6.847,0,0,1-.3-2.025A6.544,6.544,0,0,1,4.875,5.939,6.324,6.324,0,0,1,9.388,4a6.351,6.351,0,0,1,4.65,1.863,6.527,6.527,0,0,1,1.95,4.637m.1,5.6-2.05-2.2-2.05-2.2V20m0-8.3-2,2.2-2,2.2"/>
</svg>
