<svg xmlns="http://www.w3.org/2000/svg" viewBox="0 0 20.013 16.461" width="24" height="24" stroke="currentColor">
  <path d="M16.083,1a10.112,10.112,0,0,1-.229,14.461m-3.571-3.572a5.055,5.055,0,0,0,.236-7.324M9.284,3.371c0-.86-.443-1.017-.984-.35L6.9,4.75A3.729,3.729,0,0,1,4.349,5.963H2.562A1.567,1.567,0,0,0,1,7.525V9.41a1.567,1.567,0,0,0,1.562,1.562H4.349A3.729,3.729,0,0,1,6.9,12.185l1.4,1.729c.541.667.984.51.984-.35Z" fill="none" stroke-linecap="round" stroke-linejoin="round" stroke-width="2"/>
</svg>
