<svg xmlns="http://www.w3.org/2000/svg" viewBox="0 0 24 24" width="24" height="24" stroke="currentColor">
  <path d="M16.376,6.338,17.688,7.65,19,8.961m-5.246,0L15.064,7.65l1.312-1.312m0,0L15.064,5.027,13.753,3.715m5.246,0L17.688,5.027,16.376,6.338M9.284,11.956c0,.86-.443,1.017-.984.35L6.9,10.577A3.729,3.729,0,0,0,4.349,9.364H2.562A1.567,1.567,0,0,1,1,7.8V5.917A1.567,1.567,0,0,1,2.562,4.355H4.349A3.729,3.729,0,0,0,6.9,3.142L8.3,1.413c.541-.667.984-.51.984.35Z" fill="none" stroke-linecap="round" stroke-linejoin="round" stroke-width="2"/>
</svg>
