<svg xmlns="http://www.w3.org/2000/svg" viewBox="0 0 24 24" width="24" height="24" stroke="currentColor">
  <path d="M18.089,4.532a10.112,10.112,0,0,1-.229,14.461m-3.572-3.571A5.058,5.058,0,0,0,14.525,8.1M11.29,6.9c0-.859-.443-1.016-.985-.349L8.9,8.282A3.726,3.726,0,0,1,6.355,9.495H4.568a1.567,1.567,0,0,0-1.562,1.563v1.884a1.567,1.567,0,0,0,1.562,1.563H6.355A3.726,3.726,0,0,1,8.9,15.718l1.4,1.728c.542.667.985.51.985-.349Z" fill="none" stroke-linecap="round" stroke-linejoin="round" stroke-width="2"/>
</svg>
