<svg xmlns="http://www.w3.org/2000/svg" viewBox="0 0 24 24" width="24" height="24" stroke="currentColor" fill="none" stroke-linecap="round" stroke-linejoin="round" stroke-width="2">
  <path d="M18.382,11.478l1.311,1.312L21.005,14.1m-5.246,0L17.07,12.79l1.312-1.312m0,0L17.07,10.167,15.759,8.855m5.246,0-1.312,1.312-1.311,1.311M11.29,17.1c0,.859-.443,1.016-.985.349L8.9,15.718a3.726,3.726,0,0,0-2.547-1.213H4.568a1.567,1.567,0,0,1-1.562-1.563V11.058A1.567,1.567,0,0,1,4.568,9.495H6.355A3.726,3.726,0,0,0,8.9,8.282l1.4-1.728c.542-.667.985-.51.985.349Z"/>
</svg>
