<svg xmlns="http://www.w3.org/2000/svg" viewBox="0 0 24 24" width="24" height="24" stroke="currentColor">
  <path d="M7.9,8.6A5.717,5.717,0,0,1,9.687,7.15a5.137,5.137,0,0,1,4.625,0A5.71,5.71,0,0,1,16.1,8.6m0,6.8a4.587,4.587,0,0,0,.9-1.55A5.628,5.628,0,0,0,17.3,12a5.084,5.084,0,0,0-.337-1.812A7.265,7.265,0,0,0,16.1,8.6m0,6.8a5.71,5.71,0,0,1-1.788,1.45,5.137,5.137,0,0,1-4.625,0A5.717,5.717,0,0,1,7.9,15.4m0-6.8A5.453,5.453,0,0,0,7,10.188,5.349,5.349,0,0,0,6.7,12a5.084,5.084,0,0,0,.337,1.812A7.265,7.265,0,0,0,7.9,15.4m0-6.8.25-1.95L8.4,4.7a2.057,2.057,0,0,1,.537-1.225A1.474,1.474,0,0,1,10,3h4a1.627,1.627,0,0,1,1.112.475A1.96,1.96,0,0,1,15.7,4.7l.25,1.95L16.2,8.6m-.1,6.8-.25,1.95L15.6,19.3a1.993,1.993,0,0,1-.55,1.225A1.6,1.6,0,0,1,13.9,21H10a1.632,1.632,0,0,1-1.113-.475A1.964,1.964,0,0,1,8.3,19.3l-.25-1.95L7.8,15.4" fill="none" stroke-linecap="round" stroke-linejoin="round" stroke-width="2"/>
</svg>
