<svg xmlns="http://www.w3.org/2000/svg" viewBox="0 0 24 24" fill="none" stroke="currentColor" stroke-width="2" stroke-linecap="round"
  stroke-linejoin="round" stroke-miterlimit="10" width="24" height="24">
  <path d="M9.3 10.5C7.9 9.6 7 8.1 7 6.3c0-2.8 2.2-5 5-5s5 2.2 5 5c0 .4-.1.9-.2 1.3" />
  <circle cx="12" cy="6.3" r="2" />
  <path d="M15.5 11.9c.7-.4 1.6-.7 2.5-.7 2.8 0 5 2.2 5 5s-2.2 5-5 5c-.4 0-.9-.1-1.3-.2" />
  <circle cx="18" cy="16.2" r="2" />
  <path d="M15.5 11.9l-2.3-4M11 16.2h5M9.3 10.5l-2.3 4M11 16.2c0 2.8-2.2 5-5 5s-5-2.2-5-5c0-2.3 1.6-4.3 3.7-4.8" />
  <circle cx="6" cy="16.2" r="2" />
</svg>