<svg xmlns="http://www.w3.org/2000/svg" viewBox="0 0 24 24" width="24" height="24" stroke="currentColor" fill="none" stroke-linecap="round" stroke-linejoin="round" stroke-width="2">
  <path d="M12.982,2.988a1.821,1.821,0,1,1-1.286.535A1.821,1.821,0,0,1,12.982,2.988ZM15.8,11.242a2.392,2.392,0,0,0-2.406-1.9h0a2.226,2.226,0,0,0-2.438,2.264l.825,3.168H17.8l1.206,5.381M8.16,10.173a5.917,5.917,0,0,0-1.226.307,5.39,5.39,0,0,0,.533,10.277,5.985,5.985,0,0,0,7.117-3.021m6.285,1.8-1.859.624M6.934,10.48,5.892,7.246H3.131"/>
</svg>
